<?xml version="1.0" encoding="iso-8859-1"?>
<!-- Generator: Adobe Illustrator 19.0.0, SVG Export Plug-In . SVG Version: 6.00 Build 0)  -->
<svg version="1.1" id="Layer_1" xmlns="http://www.w3.org/2000/svg" xmlns:xlink="http://www.w3.org/1999/xlink" x="0px" y="0px"
	 viewBox="0 0 512 512" style="enable-background:new 0 0 512 512;" xml:space="preserve">
<path style="fill:#DE2A4E;" d="M256,491.415c180.442,0,256-95.02,256-192.48S422.231,83.553,256,122.469
	C89.769,83.553,0,201.476,0,298.936C0,396.395,75.558,491.415,256,491.415z"/>
<path style="opacity:0.15;enable-background:new    ;" d="M325.742,183.869c-1.622-8.787-7.329-31.622-24.51-45.95
	c-1.344-1.121-2.728-2.158-4.14-3.124c-1.232-0.842-0.968-2.714,0.431-3.232c0.099-0.037,0.197-0.073,0.297-0.111
	c9.867-3.733,17.939-10.088,24.18-16.578c-20.441-0.277-42.451,2.082-66,7.594c-29.558-6.92-56.684-8.86-81.331-6.858
	c6.138,6.23,13.966,12.249,23.459,15.841c0.099,0.037,0.197,0.074,0.297,0.111c1.398,0.518,1.662,2.391,0.431,3.232
	c-1.412,0.965-2.796,2.004-4.14,3.124c-17.182,14.328-22.89,37.162-24.51,45.95c-0.355,1.926,1.128,3.706,3.087,3.702
	c8.936-0.016,32.424-1.529,49.606-15.857c0.011-0.009,0.023-0.019,0.034-0.028c1.219-1.018,3.043-0.165,3.04,1.423v0.045
	c0,22.372,13.881,41.379,19.592,48.253c1.252,1.507,3.568,1.507,4.82,0c5.711-6.874,19.592-25.88,19.592-48.253v-0.045
	c-0.001-1.589,1.821-2.442,3.04-1.423c0.011,0.009,0.023,0.019,0.034,0.028c17.182,14.328,40.67,15.841,49.606,15.857
	C324.614,187.574,326.098,185.796,325.742,183.869z"/>
<path style="opacity:0.15;enable-background:new    ;" d="M282.238,465.178c-180.442,0-256-95.02-256-192.48
	c0-39.047,14.424-81.371,42.387-115.584C23.476,193.945,0,249.109,0,298.936c0,97.46,75.558,192.48,256,192.48
	c108.009,0,178.425-34.052,217.564-82.288C432.042,443.017,369.372,465.178,282.238,465.178z"/>
<path style="fill:#00A155;" d="M309.262,129.889c-1.344-1.121-2.728-2.158-4.14-3.124c-1.231-0.841-0.968-2.714,0.431-3.232
	c0.099-0.037,0.197-0.073,0.297-0.111c20.924-7.917,33.789-27.625,38.198-35.399c0.966-1.704,0.147-3.87-1.705-4.508
	c-8.449-2.908-31.139-9.165-52.063-1.248c-15.27,5.777-26.247,17.834-32.778,26.95c-0.739,1.031-2.255,1.031-2.993,0
	c-6.531-9.116-17.508-21.172-32.778-26.95c-20.924-7.917-43.614-1.66-52.063,1.248c-1.853,0.637-2.672,2.804-1.705,4.508
	c4.407,7.773,17.274,27.482,38.198,35.399c0.099,0.037,0.197,0.074,0.297,0.111c1.398,0.518,1.662,2.391,0.431,3.232
	c-1.412,0.965-2.796,2.004-4.14,3.124c-17.182,14.328-22.89,37.161-24.51,45.95c-0.355,1.926,1.128,3.706,3.087,3.702
	c8.936-0.016,32.424-1.529,49.606-15.857c0.011-0.009,0.023-0.019,0.034-0.028c1.219-1.018,3.043-0.165,3.04,1.423
	c0,0.015,0,0.029,0,0.045c0,22.372,13.881,41.379,19.591,48.253c1.252,1.507,3.568,1.507,4.82,0
	c5.711-6.874,19.591-25.88,19.591-48.253c0-0.015,0-0.029,0-0.045c-0.001-1.589,1.821-2.442,3.04-1.423
	c0.011,0.009,0.023,0.019,0.034,0.028c17.182,14.328,40.67,15.84,49.606,15.857c1.959,0.003,3.442-1.775,3.087-3.702
	C332.151,167.051,326.443,144.217,309.262,129.889z"/>
<path style="fill:#006539;" d="M256.003,133.355c-4.672,0-8.458-3.787-8.458-8.458c0-54.369,35.325-87.705,56.384-102.738
	c3.802-2.714,9.085-1.833,11.798,1.97c2.713,3.802,1.831,9.084-1.97,11.797c-18.41,13.143-49.296,42.177-49.296,88.971
	C264.461,129.568,260.674,133.355,256.003,133.355z"/>
<g>
	<path style="opacity:0.15;fill:#FFFFFF;enable-background:new    ;" d="M450.229,162.974c-4.614-0.945-9.391-1.442-14.284-1.442
		c-39.101,0-70.799,31.697-70.799,70.799s31.698,70.799,70.799,70.799c33.167,0,60.997-22.811,68.684-53.596
		C495.246,217.855,476.979,187.087,450.229,162.974z"/>
	<circle style="opacity:0.1;fill:#FFFFFF;enable-background:new    ;" cx="371.849" cy="367.507" r="34.725"/>
</g>
<g>
</g>
<g>
</g>
<g>
</g>
<g>
</g>
<g>
</g>
<g>
</g>
<g>
</g>
<g>
</g>
<g>
</g>
<g>
</g>
<g>
</g>
<g>
</g>
<g>
</g>
<g>
</g>
<g>
</g>
</svg>
